PathFileType	4	(X/Y/Z)	/Users/itak/Documents/Research/Walk-IL/dataset/trc/00018_00004.trc
DataRate	CameraRate	NumFrames	NumMarkers	Units	OrigDataRate	OrigDataStartFrame	OrigNumFrames
100.000000	100.000000	4	54	mm	100.000000	138	552
Frame#	Time	RPSI			LPSI			L3			STRN			T10			C7			CLAV			RBAK			LBAK			LSHO			LUPA			LAEL			LAOL			LWPS			LFRA			LIFD			LHPS			LHTS			RSHO			RUPA			RAEL			RAOL			RWTS			RWPS			RFRA			RIFD			RHTS			RHPS			RBHD			LFHD			RFHD			LBHD			LHIP			RHIP			RASI			LASI			LKNE			LTHI			LANK			LTIP			LTOE			LMT1			LMT5			LHEE			RKNE			RTHI			RANK			RTIP			RTOE			RMT1			RMT5			RHEE			LWTS			*53			
		X1	Y1	Z1	X2	Y2	Z2	X3	Y3	Z3	X4	Y4	Z4	X5	Y5	Z5	X6	Y6	Z6	X7	Y7	Z7	X8	Y8	Z8	X9	Y9	Z9	X10	Y10	Z10	X11	Y11	Z11	X12	Y12	Z12	X13	Y13	Z13	X14	Y14	Z14	X15	Y15	Z15	X16	Y16	Z16	X17	Y17	Z17	X18	Y18	Z18	X19	Y19	Z19	X20	Y20	Z20	X21	Y21	Z21	X22	Y22	Z22	X23	Y23	Z23	X24	Y24	Z24	X25	Y25	Z25	X26	Y26	Z26	X27	Y27	Z27	X28	Y28	Z28	X29	Y29	Z29	X30	Y30	Z30	X31	Y31	Z31	X32	Y32	Z32	X33	Y33	Z33	X34	Y34	Z34	X35	Y35	Z35	X36	Y36	Z36	X37	Y37	Z37	X38	Y38	Z38	X39	Y39	Z39	X40	Y40	Z40	X41	Y41	Z41	X42	Y42	Z42	X43	Y43	Z43	X44	Y44	Z44	X45	Y45	Z45	X46	Y46	Z46	X47	Y47	Z47	X48	Y48	Z48	X49	Y49	Z49	X50	Y50	Z50	X51	Y51	Z51	X52	Y52	Z52	X53	Y53	Z53	X54	Y54	Z54	

139	1.38	915.82568359375	1057.119018554688	-172.3423156738281	868.6450805664062	1058.457641601562	-328.0333251953125	888.27197265625	1122.135375976562	-255.3117980957031	1117.7509765625	1310.978393554688	-303.3697814941406	871.009765625	1265.791625976562	-251.1245880126953	919.3432006835938	1531.552978515625	-270.6400451660156	1077.494140625	1438.221069335938	-297.7813720703125	886.0029296875	1394.442993164062	-182.614990234375	885.2576293945312	1493.023071289062	-364.4942321777344	972.053955078125	1497.215698242188	-456.2588500976562	920.58837890625	1374.957641601562	-525.6152954101562	898.6035766601562	1159.454345703125	-550.85400390625	864.6539916992188	1150.006958007812	-451.559814453125	883.3792114257812	892.048095703125	-541.2741088867188	897.9331665039062	1042.859741210938	-559.8474731445312	985.1676635742188	713.357421875	-503.1021728515625	905.2633666992188	799.172607421875	-547.1072998046875	975.5401000976562	801.837890625	-534.3339233398438	1030.161254882812	1517.063842773438	-115.4283752441406	1033.209716796875	1445.36083984375	-41.22014999389648	1015.560668945312	1175.781005859375	-9.365360260009766	993.2708740234375	1146.0234375	-101.8565902709961	1163.69775390625	933.9053344726562	-74.71858978271484	1116.492065429688	910.4907836914062	1.078331112861633	1039.081787109375	1100.638671875	1.412383556365967	1205.803466796875	751.6234741210938	-94.59001922607422	1213.402221679688	829.6078491210938	-69.14035034179688	1169.382690429688	817.3726196289062	-9.299944877624512	974.7061767578125	1706.57470703125	-210.3665008544922	1142.645751953125	1735.705932617188	-335.2334899902344	1144.83642578125	1736.223022460938	-236.3220520019531	962.37158203125	1709.53173828125	-354.1017456054688	926.3880615234375	961.6677856445312	-462.3856811523438	1052.4892578125	948.194580078125	-107.6404876708984	1128.069702148438	979.2059326171875	-207.0131378173828	1057.141723632812	1002.204406738281	-430.0733337402344	986.520263671875	506.3838195800781	-456.5148315429688	955.1898193359375	650.5848388671875	-475.3860473632812	669.5704345703125	104.9541625976562	-429.679931640625	807.3753051757812	318.0252990722656	-458.5203857421875	878.7830200195312	40.2862434387207	-375.1865234375	826.8187866210938	66.24623107910156	-355.570556640625	783.665771484375	58.20878982543945	-452.2986755371094	611.8319091796875	139.9840087890625	-374.8524169921875	1089.0537109375	514.9041137695312	-168.4806213378906	1083.644897460938	784.5006713867188	-119.4707489013672	1029.552856445312	30.07012748718262	-207.2961120605469	1076.279174804688	391.8311462402344	-169.0165863037109	1260.381469726562	29.47965812683105	-255.9272766113281	1197.017578125	37.29679489135742	-282.7152404785156	1178.998779296875	27.74804306030273	-187.2171630859375	973.7611083984375	32.12171173095703	-251.3121643066406	968.8226318359375	897.3504638671875	-516.3948364257812	nan	nan	nan	
140	1.39	911.76123046875	1056.8046875	-172.9768371582031	864.7619018554688	1058.021240234375	-328.7012023925781	884.145751953125	1121.705444335938	-256.0640869140625	1113.336669921875	1310.913940429688	-303.6041870117188	866.5588989257812	1265.333862304688	-251.9971313476562	914.4913330078125	1531.154663085938	-271.5207824707031	1072.809448242188	1438.033935546875	-298.0826721191406	881.0972900390625	1393.953491210938	-183.5409088134766	880.6688842773438	1492.511596679688	-365.408935546875	967.7601318359375	1496.893798828125	-456.9575805664062	916.8848876953125	1374.50390625	-526.4534301757812	895.7095947265625	1158.840454101562	-551.7361450195312	861.3629760742188	1149.298706054688	-452.5806579589844	881.2034912109375	891.4154052734375	-542.1270141601562	895.42822265625	1042.22314453125	-560.6629028320312	983.4498291015625	712.8781127929688	-503.3678588867188	903.37939453125	798.5718383789062	-547.8366088867188	973.5111694335938	801.323974609375	-534.665771484375	1024.828369140625	1516.856079101562	-115.9295425415039	1027.744262695312	1445.162231445312	-41.71722793579102	1010.37109375	1175.536987304688	-9.95761775970459	988.41357421875	1145.732177734375	-102.5157623291016	1159.276489257812	934.0211791992188	-75.08351898193359	1112.044921875	910.482666015625	0.4914754927158356	1034.048828125	1100.412109375	0.8328241109848022	1202.027465820312	751.9829711914062	-95.16458892822266	1209.36279296875	829.9718017578125	-69.59505462646484	1165.237182617188	817.5260009765625	-9.872032165527344	969.4309692382812	1706.26904296875	-210.9497985839844	1137.567626953125	1735.600219726562	-335.387939453125	1139.574340820312	1736.1142578125	-236.5311737060547	957.3846435546875	1709.246704101562	-354.6983337402344	922.8549194335938	961.3416137695312	-462.8732604980469	1048.592163085938	948.1331787109375	-108.050048828125	1124.164672851562	979.2294311523438	-207.4328460693359	1053.458984375	1001.929260253906	-430.6007385253906	980.4580078125	505.798095703125	-457.1935119628906	949.840576171875	650.3109130859375	-475.9171752929688	658.004150390625	108.3301239013672	-429.1574096679688	798.839111328125	319.38623046875	-458.6441345214844	866.2261352539062	41.12851715087891	-373.5556640625	814.4156494140625	67.96122741699219	-354.278564453125	771.4454345703125	59.56731033325195	-451.0248107910156	600.623291015625	144.4930419921875	-374.6784362792969	1087.277099609375	515.2374877929688	-168.9269866943359	1080.537475585938	784.6423950195312	-119.7838592529297	1029.546752929688	30.07086372375488	-207.2844848632812	1075.130249023438	392.0557861328125	-169.3898773193359	1260.3671875	29.51224136352539	-255.9337005615234	1197.013793945312	37.35972595214844	-282.75634765625	1178.99462890625	27.75763130187988	-187.2270202636719	973.77587890625	32.08829116821289	-251.2978210449219	966.547119140625	897.0238037109375	-516.9287719726562	nan	nan	nan	
141	1.4	907.5781860351562	1056.454467773438	-173.6578979492188	860.7709350585938	1057.5244140625	-329.4178771972656	879.89404296875	1121.244995117188	-256.8824157714844	1108.817993164062	1310.788818359375	-303.8673400878906	862.0109252929688	1264.842651367188	-252.9308319091797	909.5584106445312	1530.722290039062	-272.4651184082031	1068.036743164062	1437.797485351562	-298.4193725585938	876.07666015625	1393.423217773438	-184.5361785888672	875.994140625	1491.958374023438	-366.3754577636719	963.3976440429688	1496.533447265625	-457.7023010253906	913.1319580078125	1374.00439453125	-527.3416137695312	892.8246459960938	1158.189575195312	-552.6890258789062	858.0162963867188	1148.535400390625	-453.6903076171875	879.173095703125	890.7380981445312	-543.0494995117188	892.9810180664062	1041.552490234375	-561.546630859375	981.9188842773438	712.3887329101562	-503.6711120605469	901.6982421875	797.9441528320312	-548.6324462890625	971.6692504882812	800.7991333007812	-535.0347900390625	1019.387573242188	1516.58984375	-116.4701080322266	1022.148986816406	1444.901733398438	-42.25788497924805	1005.005310058594	1175.236694335938	-10.58849430084229	983.394775390625	1145.383178710938	-103.2347946166992	1154.643432617188	934.0482788085938	-75.43595886230469	1107.378662109375	910.4063720703125	-0.09824010729789734	1028.82666015625	1100.128295898438	0.2217331081628799	1198.025756835938	752.2581176757812	-95.70243072509766	1205.088989257812	830.2408447265625	-70.01918029785156	1160.8701171875	817.6089477539062	-10.42006015777588	964.0647583007812	1705.916870117188	-211.5764923095703	1132.412963867188	1735.429321289062	-335.5277099609375	1134.247436523438	1735.951782226562	-236.7665557861328	952.3400268554688	1708.918579101562	-355.3414306640625	919.1939086914062	960.9314575195312	-463.3813781738281	1044.583251953125	948.088623046875	-108.5161514282227	1120.12744140625	979.2244873046875	-207.8860321044922	1049.6376953125	1001.573608398438	-431.1466369628906	974.4378662109375	505.1719665527344	-457.8240966796875	944.5512084960938	649.96240234375	-476.4299621582031	646.8413696289062	111.5050277709961	-428.608642578125	790.5099487304688	320.604736328125	-458.7423095703125	853.9723510742188	41.83169937133789	-371.8168640136719	802.354248046875	69.52072906494141	-352.9086608886719	759.5789794921875	60.76551055908203	-449.67724609375	589.81640625	148.7957153320312	-374.5156860351562	1085.420166015625	515.5973510742188	-169.3775329589844	1077.33154296875	784.7924194335938	-120.1016845703125	1029.537231445312	30.06766891479492	-207.2719116210938	1073.934814453125	392.2893371582031	-169.7601318359375	1260.3466796875	29.54932975769043	-255.9365081787109	1197.01611328125	37.43857955932617	-282.7997131347656	1178.984985351562	27.7703971862793	-187.2394104003906	973.7904052734375	32.05368804931641	-251.2837982177734	964.4125366210938	896.7083129882812	-517.5120849609375	nan	nan	nan	
142	1.41	903.2791748046875	1056.06298828125	-174.3819732666016	856.6509399414062	1056.973266601562	-330.1867370605469	875.5189819335938	1120.756958007812	-257.7642822265625	1104.191162109375	1310.601928710938	-304.1650695800781	857.3645629882812	1264.308959960938	-253.9247589111328	904.538818359375	1530.252685546875	-273.4713745117188	1063.17626953125	1437.515869140625	-298.8014831542969	870.9425048828125	1392.852172851562	-185.5998077392578	871.2372436523438	1491.368774414062	-367.4007568359375	958.9652099609375	1496.131591796875	-458.4920349121094	909.3261108398438	1373.456665039062	-528.281494140625	889.9434204101562	1157.500244140625	-553.7103271484375	854.6155395507812	1147.717407226562	-454.8870239257812	877.2869262695312	890.0152587890625	-544.040283203125	890.586669921875	1040.85009765625	-562.4984130859375	980.5738525390625	711.8985595703125	-504.023193359375	900.2128295898438	797.2941284179688	-549.4932861328125	970.0131225585938	800.2728881835938	-535.4524536132812	1013.839416503906	1516.263305664062	-117.0535202026367	1016.427490234375	1444.576782226562	-42.84478378295898	999.4672241210938	1174.878662109375	-11.25904560089111	978.208984375	1144.982666015625	-104.0079040527344	1149.808349609375	933.9965209960938	-75.78377532958984	1102.491943359375	910.2599487304688	-0.6885514259338379	1023.414489746094	1099.785888671875	-0.4224624931812286	1193.802001953125	752.4556274414062	-96.20507049560547	1200.575439453125	830.4071044921875	-70.40726470947266	1156.272827148438	817.6172485351562	-10.94583606719971	958.6083374023438	1705.515258789062	-212.2460479736328	1127.185791015625	1735.192504882812	-335.6565246582031	1128.857421875	1735.731079101562	-237.0291442871094	947.2408447265625	1708.550048828125	-356.0334167480469	915.36767578125	960.4327392578125	-463.9190063476562	1040.469360351562	948.078125	-109.0508346557617	1115.955322265625	979.1923828125	-208.376220703125	1045.676147460938	1001.14013671875	-431.7137756347656	968.4524536132812	504.5003051757812	-458.3852233886719	939.4095458984375	649.5150756835938	-476.8912048339844	636.1124267578125	114.4309463500977	-428.0355834960938	782.406005859375	321.656982421875	-458.8086547851562	842.054443359375	42.34726715087891	-369.9915466308594	790.6643676757812	70.85581970214844	-351.4713134765625	748.1095581054688	61.76255035400391	-448.2725524902344	579.4473876953125	152.8410034179688	-374.3619689941406	1083.496826171875	515.9827880859375	-169.8393249511719	1074.023193359375	784.9496459960938	-120.416130065918	1029.524047851562	30.05947494506836	-207.2581634521484	1072.702758789062	392.5230407714844	-170.1387939453125	1260.322265625	29.5955924987793	-255.9367523193359	1197.023071289062	37.5323371887207	-282.8436889648438	1178.970825195312	27.78579711914062	-187.2524871826172	973.80419921875	32.01779174804688	-251.2698211669922	962.4114990234375	896.3924560546875	-518.1414794921875	nan	nan	nan	
